<?xml version="1.0" encoding="UTF-8" standalone="no"?>
<!DOCTYPE svg PUBLIC "-//W3C//DTD SVG 1.1//EN"
 "http://www.w3.org/Graphics/SVG/1.1/DTD/svg11.dtd">
<!-- Generated by graphviz version 2.47.3 (20210619.1520)
 -->
<!-- Title: dependencies Pages: 1 -->
<svg width="356pt" height="247pt"
 viewBox="0.00 0.00 356.00 246.80" xmlns="http://www.w3.org/2000/svg" xmlns:xlink="http://www.w3.org/1999/xlink">
<g id="graph0" class="graph" transform="scale(1 1) rotate(0) translate(4 242.8)">
<title>dependencies</title>
<polygon fill="white" stroke="transparent" points="-4,4 -4,-242.8 352,-242.8 352,4 -4,4"/>
<text text-anchor="middle" x="174" y="-8.2" font-family="sans-serif" font-size="14.00">dependencies</text>
<g id="clust1" class="cluster">
<title>cluster_CoursesModule</title>
<polygon fill="none" stroke="black" stroke-dasharray="1,5" points="8,-32.8 8,-230.8 340,-230.8 340,-32.8 8,-32.8"/>
</g>
<g id="clust2" class="cluster">
<title>cluster_CoursesModule_declarations</title>
<polygon fill="none" stroke="black" points="190,-40.8 190,-92.8 332,-92.8 332,-40.8 190,-40.8"/>
</g>
<g id="clust5" class="cluster">
<title>cluster_CoursesModule_exports</title>
<polygon fill="none" stroke="black" points="106,-170.8 106,-222.8 252,-222.8 252,-170.8 106,-170.8"/>
</g>
<g id="clust4" class="cluster">
<title>cluster_CoursesModule_imports</title>
<polygon fill="none" stroke="black" points="16,-40.8 16,-92.8 182,-92.8 182,-40.8 16,-40.8"/>
</g>
<!-- CoursesComponent -->
<g id="node1" class="node">
<title>CoursesComponent</title>
<polygon fill="#ffffb3" stroke="black" points="324.43,-84.8 197.57,-84.8 197.57,-48.8 324.43,-48.8 324.43,-84.8"/>
<text text-anchor="middle" x="261" y="-62.6" font-family="Times,serif" font-size="14.00">CoursesComponent</text>
</g>
<!-- CoursesModule -->
<g id="node2" class="node">
<title>CoursesModule</title>
<polygon fill="#8dd3c7" stroke="black" points="231.15,-149.8 228.15,-153.8 207.15,-153.8 204.15,-149.8 126.85,-149.8 126.85,-113.8 231.15,-113.8 231.15,-149.8"/>
<text text-anchor="middle" x="179" y="-127.6" font-family="Times,serif" font-size="14.00">CoursesModule</text>
</g>
<!-- CoursesComponent&#45;&gt;CoursesModule -->
<g id="edge1" class="edge">
<title>CoursesComponent&#45;&gt;CoursesModule</title>
<path fill="none" stroke="black" d="M214.55,-84.91C214.55,-84.91 214.55,-103.79 214.55,-103.79"/>
<polygon fill="black" stroke="black" points="211.05,-103.79 214.55,-113.79 218.05,-103.79 211.05,-103.79"/>
</g>
<!-- CoursesComponent  -->
<g id="node4" class="node">
<title>CoursesComponent </title>
<polygon fill="#fb8072" stroke="black" points="243.93,-214.8 114.07,-214.8 114.07,-178.8 243.93,-178.8 243.93,-214.8"/>
<text text-anchor="middle" x="179" y="-192.6" font-family="Times,serif" font-size="14.00">CoursesComponent </text>
</g>
<!-- CoursesModule&#45;&gt;CoursesComponent  -->
<g id="edge3" class="edge">
<title>CoursesModule&#45;&gt;CoursesComponent </title>
<path fill="none" stroke="black" stroke-dasharray="5,2" d="M179,-149.91C179,-149.91 179,-168.79 179,-168.79"/>
<polygon fill="black" stroke="black" points="175.5,-168.79 179,-178.79 182.5,-168.79 175.5,-168.79"/>
</g>
<!-- CoursesRoutingModule -->
<g id="node3" class="node">
<title>CoursesRoutingModule</title>
<polygon fill="#8dd3c7" stroke="black" points="173.77,-84.8 170.77,-88.8 149.77,-88.8 146.77,-84.8 24.23,-84.8 24.23,-48.8 173.77,-48.8 173.77,-84.8"/>
<text text-anchor="middle" x="99" y="-62.6" font-family="Times,serif" font-size="14.00">CoursesRoutingModule</text>
</g>
<!-- CoursesRoutingModule&#45;&gt;CoursesModule -->
<g id="edge2" class="edge">
<title>CoursesRoutingModule&#45;&gt;CoursesModule</title>
<path fill="none" stroke="black" d="M150.28,-84.91C150.28,-84.91 150.28,-103.79 150.28,-103.79"/>
<polygon fill="black" stroke="black" points="146.78,-103.79 150.28,-113.79 153.78,-103.79 146.78,-103.79"/>
</g>
</g>
</svg>
