<?xml version="1.0" encoding="UTF-8" standalone="no"?>
<!DOCTYPE svg PUBLIC "-//W3C//DTD SVG 1.1//EN"
 "http://www.w3.org/Graphics/SVG/1.1/DTD/svg11.dtd">
<!-- Generated by graphviz version 2.47.3 (20210619.1520)
 -->
<!-- Title: dependencies Pages: 1 -->
<svg width="456pt" height="247pt"
 viewBox="0.00 0.00 456.00 246.80" xmlns="http://www.w3.org/2000/svg" xmlns:xlink="http://www.w3.org/1999/xlink">
<g id="graph0" class="graph" transform="scale(1 1) rotate(0) translate(4 242.8)">
<title>dependencies</title>
<polygon fill="white" stroke="transparent" points="-4,4 -4,-242.8 452,-242.8 452,4 -4,4"/>
<text text-anchor="middle" x="224" y="-8.2" font-family="sans-serif" font-size="14.00">dependencies</text>
<g id="clust1" class="cluster">
<title>cluster_AboutModule</title>
<polygon fill="none" stroke="black" stroke-dasharray="1,5" points="8,-32.8 8,-230.8 440,-230.8 440,-32.8 8,-32.8"/>
</g>
<g id="clust2" class="cluster">
<title>cluster_AboutModule_declarations</title>
<polygon fill="none" stroke="black" points="300,-40.8 300,-92.8 432,-92.8 432,-40.8 300,-40.8"/>
</g>
<g id="clust4" class="cluster">
<title>cluster_AboutModule_imports</title>
<polygon fill="none" stroke="black" points="16,-40.8 16,-92.8 292,-92.8 292,-40.8 16,-40.8"/>
</g>
<g id="clust5" class="cluster">
<title>cluster_AboutModule_exports</title>
<polygon fill="none" stroke="black" points="146,-170.8 146,-222.8 282,-222.8 282,-170.8 146,-170.8"/>
</g>
<!-- AboutComponent -->
<g id="node1" class="node">
<title>AboutComponent</title>
<polygon fill="#ffffb3" stroke="black" points="424.33,-84.8 307.67,-84.8 307.67,-48.8 424.33,-48.8 424.33,-84.8"/>
<text text-anchor="middle" x="366" y="-62.6" font-family="Times,serif" font-size="14.00">AboutComponent</text>
</g>
<!-- AboutModule -->
<g id="node2" class="node">
<title>AboutModule</title>
<polygon fill="#8dd3c7" stroke="black" points="261.05,-149.8 258.05,-153.8 237.05,-153.8 234.05,-149.8 166.95,-149.8 166.95,-113.8 261.05,-113.8 261.05,-149.8"/>
<text text-anchor="middle" x="214" y="-127.6" font-family="Times,serif" font-size="14.00">AboutModule</text>
</g>
<!-- AboutComponent&#45;&gt;AboutModule -->
<g id="edge1" class="edge">
<title>AboutComponent&#45;&gt;AboutModule</title>
<path fill="none" stroke="black" d="M366,-84.91C366,-104.14 366,-131.8 366,-131.8 366,-131.8 271.26,-131.8 271.26,-131.8"/>
<polygon fill="black" stroke="black" points="271.26,-128.3 261.26,-131.8 271.26,-135.3 271.26,-128.3"/>
</g>
<!-- AboutComponent  -->
<g id="node5" class="node">
<title>AboutComponent </title>
<polygon fill="#fb8072" stroke="black" points="273.83,-214.8 154.17,-214.8 154.17,-178.8 273.83,-178.8 273.83,-214.8"/>
<text text-anchor="middle" x="214" y="-192.6" font-family="Times,serif" font-size="14.00">AboutComponent </text>
</g>
<!-- AboutModule&#45;&gt;AboutComponent  -->
<g id="edge4" class="edge">
<title>AboutModule&#45;&gt;AboutComponent </title>
<path fill="none" stroke="black" stroke-dasharray="5,2" d="M214,-149.91C214,-149.91 214,-168.79 214,-168.79"/>
<polygon fill="black" stroke="black" points="210.5,-168.79 214,-178.79 217.5,-168.79 210.5,-168.79"/>
</g>
<!-- AboutRoutingModule -->
<g id="node3" class="node">
<title>AboutRoutingModule</title>
<polygon fill="#8dd3c7" stroke="black" points="283.67,-84.8 280.67,-88.8 259.67,-88.8 256.67,-84.8 144.33,-84.8 144.33,-48.8 283.67,-48.8 283.67,-84.8"/>
<text text-anchor="middle" x="214" y="-62.6" font-family="Times,serif" font-size="14.00">AboutRoutingModule</text>
</g>
<!-- AboutRoutingModule&#45;&gt;AboutModule -->
<g id="edge2" class="edge">
<title>AboutRoutingModule&#45;&gt;AboutModule</title>
<path fill="none" stroke="black" d="M214,-84.91C214,-84.91 214,-103.79 214,-103.79"/>
<polygon fill="black" stroke="black" points="210.5,-103.79 214,-113.79 217.5,-103.79 210.5,-103.79"/>
</g>
<!-- SidebarModule -->
<g id="node4" class="node">
<title>SidebarModule</title>
<polygon fill="#8dd3c7" stroke="black" points="126.31,-84.8 123.31,-88.8 102.31,-88.8 99.31,-84.8 23.69,-84.8 23.69,-48.8 126.31,-48.8 126.31,-84.8"/>
<text text-anchor="middle" x="75" y="-62.6" font-family="Times,serif" font-size="14.00">SidebarModule</text>
</g>
<!-- SidebarModule&#45;&gt;AboutModule -->
<g id="edge3" class="edge">
<title>SidebarModule&#45;&gt;AboutModule</title>
<path fill="none" stroke="black" d="M75,-84.91C75,-104.14 75,-131.8 75,-131.8 75,-131.8 156.94,-131.8 156.94,-131.8"/>
<polygon fill="black" stroke="black" points="156.94,-135.3 166.94,-131.8 156.94,-128.3 156.94,-135.3"/>
</g>
</g>
</svg>
