<?xml version="1.0" encoding="UTF-8" standalone="no"?>
<!DOCTYPE svg PUBLIC "-//W3C//DTD SVG 1.1//EN"
 "http://www.w3.org/Graphics/SVG/1.1/DTD/svg11.dtd">
<!-- Generated by graphviz version 2.47.3 (20210619.1520)
 -->
<!-- Title: dependencies Pages: 1 -->
<svg width="455pt" height="247pt"
 viewBox="0.00 0.00 455.00 246.80" xmlns="http://www.w3.org/2000/svg" xmlns:xlink="http://www.w3.org/1999/xlink">
<g id="graph0" class="graph" transform="scale(1 1) rotate(0) translate(4 242.8)">
<title>dependencies</title>
<polygon fill="white" stroke="transparent" points="-4,4 -4,-242.8 451,-242.8 451,4 -4,4"/>
<text text-anchor="middle" x="223.5" y="-8.2" font-family="sans-serif" font-size="14.00">dependencies</text>
<g id="clust1" class="cluster">
<title>cluster_HomeModule</title>
<polygon fill="none" stroke="black" stroke-dasharray="1,5" points="8,-32.8 8,-230.8 439,-230.8 439,-32.8 8,-32.8"/>
</g>
<g id="clust5" class="cluster">
<title>cluster_HomeModule_exports</title>
<polygon fill="none" stroke="black" points="146,-170.8 146,-222.8 282,-222.8 282,-170.8 146,-170.8"/>
</g>
<g id="clust2" class="cluster">
<title>cluster_HomeModule_declarations</title>
<polygon fill="none" stroke="black" points="299,-40.8 299,-92.8 431,-92.8 431,-40.8 299,-40.8"/>
</g>
<g id="clust4" class="cluster">
<title>cluster_HomeModule_imports</title>
<polygon fill="none" stroke="black" points="16,-40.8 16,-92.8 291,-92.8 291,-40.8 16,-40.8"/>
</g>
<!-- HomeComponent -->
<g id="node1" class="node">
<title>HomeComponent</title>
<polygon fill="#ffffb3" stroke="black" points="422.55,-84.8 307.45,-84.8 307.45,-48.8 422.55,-48.8 422.55,-84.8"/>
<text text-anchor="middle" x="365" y="-62.6" font-family="Times,serif" font-size="14.00">HomeComponent</text>
</g>
<!-- HomeModule -->
<g id="node2" class="node">
<title>HomeModule</title>
<polygon fill="#8dd3c7" stroke="black" points="260.76,-149.8 257.76,-153.8 236.76,-153.8 233.76,-149.8 167.24,-149.8 167.24,-113.8 260.76,-113.8 260.76,-149.8"/>
<text text-anchor="middle" x="214" y="-127.6" font-family="Times,serif" font-size="14.00">HomeModule</text>
</g>
<!-- HomeComponent&#45;&gt;HomeModule -->
<g id="edge1" class="edge">
<title>HomeComponent&#45;&gt;HomeModule</title>
<path fill="none" stroke="black" d="M365,-84.91C365,-104.14 365,-131.8 365,-131.8 365,-131.8 270.95,-131.8 270.95,-131.8"/>
<polygon fill="black" stroke="black" points="270.95,-128.3 260.95,-131.8 270.95,-135.3 270.95,-128.3"/>
</g>
<!-- HomeComponent  -->
<g id="node5" class="node">
<title>HomeComponent </title>
<polygon fill="#fb8072" stroke="black" points="273.54,-214.8 154.46,-214.8 154.46,-178.8 273.54,-178.8 273.54,-214.8"/>
<text text-anchor="middle" x="214" y="-192.6" font-family="Times,serif" font-size="14.00">HomeComponent </text>
</g>
<!-- HomeModule&#45;&gt;HomeComponent  -->
<g id="edge4" class="edge">
<title>HomeModule&#45;&gt;HomeComponent </title>
<path fill="none" stroke="black" stroke-dasharray="5,2" d="M214,-149.91C214,-149.91 214,-168.79 214,-168.79"/>
<polygon fill="black" stroke="black" points="210.5,-168.79 214,-178.79 217.5,-168.79 210.5,-168.79"/>
</g>
<!-- HomeRoutingModule -->
<g id="node3" class="node">
<title>HomeRoutingModule</title>
<polygon fill="#8dd3c7" stroke="black" points="283.38,-84.8 280.38,-88.8 259.38,-88.8 256.38,-84.8 144.62,-84.8 144.62,-48.8 283.38,-48.8 283.38,-84.8"/>
<text text-anchor="middle" x="214" y="-62.6" font-family="Times,serif" font-size="14.00">HomeRoutingModule</text>
</g>
<!-- HomeRoutingModule&#45;&gt;HomeModule -->
<g id="edge2" class="edge">
<title>HomeRoutingModule&#45;&gt;HomeModule</title>
<path fill="none" stroke="black" d="M214,-84.91C214,-84.91 214,-103.79 214,-103.79"/>
<polygon fill="black" stroke="black" points="210.5,-103.79 214,-113.79 217.5,-103.79 210.5,-103.79"/>
</g>
<!-- SidebarModule -->
<g id="node4" class="node">
<title>SidebarModule</title>
<polygon fill="#8dd3c7" stroke="black" points="126.31,-84.8 123.31,-88.8 102.31,-88.8 99.31,-84.8 23.69,-84.8 23.69,-48.8 126.31,-48.8 126.31,-84.8"/>
<text text-anchor="middle" x="75" y="-62.6" font-family="Times,serif" font-size="14.00">SidebarModule</text>
</g>
<!-- SidebarModule&#45;&gt;HomeModule -->
<g id="edge3" class="edge">
<title>SidebarModule&#45;&gt;HomeModule</title>
<path fill="none" stroke="black" d="M75,-84.91C75,-104.14 75,-131.8 75,-131.8 75,-131.8 156.94,-131.8 156.94,-131.8"/>
<polygon fill="black" stroke="black" points="156.94,-135.3 166.94,-131.8 156.94,-128.3 156.94,-135.3"/>
</g>
</g>
</svg>
