<?xml version="1.0" encoding="UTF-8" standalone="no"?>
<!DOCTYPE svg PUBLIC "-//W3C//DTD SVG 1.1//EN"
 "http://www.w3.org/Graphics/SVG/1.1/DTD/svg11.dtd">
<!-- Generated by graphviz version 2.47.3 (20210619.1520)
 -->
<!-- Title: dependencies Pages: 1 -->
<svg width="472pt" height="247pt"
 viewBox="0.00 0.00 472.00 246.80" xmlns="http://www.w3.org/2000/svg" xmlns:xlink="http://www.w3.org/1999/xlink">
<g id="graph0" class="graph" transform="scale(1 1) rotate(0) translate(4 242.8)">
<title>dependencies</title>
<polygon fill="white" stroke="transparent" points="-4,4 -4,-242.8 468,-242.8 468,4 -4,4"/>
<text text-anchor="middle" x="232" y="-8.2" font-family="sans-serif" font-size="14.00">dependencies</text>
<g id="clust1" class="cluster">
<title>cluster_ContactModule</title>
<polygon fill="none" stroke="black" stroke-dasharray="1,5" points="8,-32.8 8,-230.8 456,-230.8 456,-32.8 8,-32.8"/>
</g>
<g id="clust4" class="cluster">
<title>cluster_ContactModule_imports</title>
<polygon fill="none" stroke="black" points="164,-40.8 164,-92.8 448,-92.8 448,-40.8 164,-40.8"/>
</g>
<g id="clust5" class="cluster">
<title>cluster_ContactModule_exports</title>
<polygon fill="none" stroke="black" points="151,-170.8 151,-222.8 295,-222.8 295,-170.8 151,-170.8"/>
</g>
<g id="clust2" class="cluster">
<title>cluster_ContactModule_declarations</title>
<polygon fill="none" stroke="black" points="16,-40.8 16,-92.8 156,-92.8 156,-40.8 16,-40.8"/>
</g>
<!-- ContactComponent -->
<g id="node1" class="node">
<title>ContactComponent</title>
<polygon fill="#ffffb3" stroke="black" points="148.38,-84.8 23.62,-84.8 23.62,-48.8 148.38,-48.8 148.38,-84.8"/>
<text text-anchor="middle" x="86" y="-62.6" font-family="Times,serif" font-size="14.00">ContactComponent</text>
</g>
<!-- ContactModule -->
<g id="node2" class="node">
<title>ContactModule</title>
<polygon fill="#8dd3c7" stroke="black" points="274.6,-149.8 271.6,-153.8 250.6,-153.8 247.6,-149.8 171.4,-149.8 171.4,-113.8 274.6,-113.8 274.6,-149.8"/>
<text text-anchor="middle" x="223" y="-127.6" font-family="Times,serif" font-size="14.00">ContactModule</text>
</g>
<!-- ContactComponent&#45;&gt;ContactModule -->
<g id="edge1" class="edge">
<title>ContactComponent&#45;&gt;ContactModule</title>
<path fill="none" stroke="black" d="M86,-84.91C86,-104.14 86,-131.8 86,-131.8 86,-131.8 161.21,-131.8 161.21,-131.8"/>
<polygon fill="black" stroke="black" points="161.21,-135.3 171.21,-131.8 161.21,-128.3 161.21,-135.3"/>
</g>
<!-- ContactComponent  -->
<g id="node5" class="node">
<title>ContactComponent </title>
<polygon fill="#fb8072" stroke="black" points="287.38,-214.8 158.62,-214.8 158.62,-178.8 287.38,-178.8 287.38,-214.8"/>
<text text-anchor="middle" x="223" y="-192.6" font-family="Times,serif" font-size="14.00">ContactComponent </text>
</g>
<!-- ContactModule&#45;&gt;ContactComponent  -->
<g id="edge4" class="edge">
<title>ContactModule&#45;&gt;ContactComponent </title>
<path fill="none" stroke="black" stroke-dasharray="5,2" d="M223,-149.91C223,-149.91 223,-168.79 223,-168.79"/>
<polygon fill="black" stroke="black" points="219.5,-168.79 223,-178.79 226.5,-168.79 219.5,-168.79"/>
</g>
<!-- ContactRoutingModule -->
<g id="node3" class="node">
<title>ContactRoutingModule</title>
<polygon fill="#8dd3c7" stroke="black" points="440.21,-84.8 437.21,-88.8 416.21,-88.8 413.21,-84.8 291.79,-84.8 291.79,-48.8 440.21,-48.8 440.21,-84.8"/>
<text text-anchor="middle" x="366" y="-62.6" font-family="Times,serif" font-size="14.00">ContactRoutingModule</text>
</g>
<!-- ContactRoutingModule&#45;&gt;ContactModule -->
<g id="edge2" class="edge">
<title>ContactRoutingModule&#45;&gt;ContactModule</title>
<path fill="none" stroke="black" d="M366,-84.91C366,-104.14 366,-131.8 366,-131.8 366,-131.8 284.63,-131.8 284.63,-131.8"/>
<polygon fill="black" stroke="black" points="284.63,-128.3 274.63,-131.8 284.63,-135.3 284.63,-128.3"/>
</g>
<!-- SidebarModule -->
<g id="node4" class="node">
<title>SidebarModule</title>
<polygon fill="#8dd3c7" stroke="black" points="274.31,-84.8 271.31,-88.8 250.31,-88.8 247.31,-84.8 171.69,-84.8 171.69,-48.8 274.31,-48.8 274.31,-84.8"/>
<text text-anchor="middle" x="223" y="-62.6" font-family="Times,serif" font-size="14.00">SidebarModule</text>
</g>
<!-- SidebarModule&#45;&gt;ContactModule -->
<g id="edge3" class="edge">
<title>SidebarModule&#45;&gt;ContactModule</title>
<path fill="none" stroke="black" d="M223,-84.91C223,-84.91 223,-103.79 223,-103.79"/>
<polygon fill="black" stroke="black" points="219.5,-103.79 223,-113.79 226.5,-103.79 219.5,-103.79"/>
</g>
</g>
</svg>
