<?xml version="1.0" encoding="UTF-8" standalone="no"?>
<!DOCTYPE svg PUBLIC "-//W3C//DTD SVG 1.1//EN"
 "http://www.w3.org/Graphics/SVG/1.1/DTD/svg11.dtd">
<!-- Generated by graphviz version 2.47.3 (20210619.1520)
 -->
<!-- Title: dependencies Pages: 1 -->
<svg width="3410pt" height="253pt"
 viewBox="0.00 0.00 3410.00 252.80" xmlns="http://www.w3.org/2000/svg" xmlns:xlink="http://www.w3.org/1999/xlink">
<g id="graph0" class="graph" transform="scale(1 1) rotate(0) translate(4 248.8)">
<title>dependencies</title>
<polygon fill="white" stroke="transparent" points="-4,4 -4,-248.8 3406,-248.8 3406,4 -4,4"/>
<text text-anchor="middle" x="1701" y="-8.2" font-family="sans-serif" font-size="14.00">dependencies</text>
<g id="clust1" class="cluster">
<title>cluster_AboutModule</title>
<polygon fill="none" stroke="black" stroke-dasharray="1,5" points="324,-32.8 324,-236.8 756,-236.8 756,-32.8 324,-32.8"/>
</g>
<g id="clust2" class="cluster">
<title>cluster_AboutModule_declarations</title>
<polygon fill="none" stroke="black" points="332,-40.8 332,-92.8 464,-92.8 464,-40.8 332,-40.8"/>
</g>
<g id="clust4" class="cluster">
<title>cluster_AboutModule_imports</title>
<polygon fill="none" stroke="black" points="472,-40.8 472,-92.8 748,-92.8 748,-40.8 472,-40.8"/>
</g>
<g id="clust5" class="cluster">
<title>cluster_AboutModule_exports</title>
<polygon fill="none" stroke="black" points="482,-176.8 482,-228.8 618,-228.8 618,-176.8 482,-176.8"/>
</g>
<g id="clust14" class="cluster">
<title>cluster_AppModule</title>
<polygon fill="none" stroke="black" stroke-dasharray="1,5" points="2266,-32.8 2266,-236.8 2406,-236.8 2406,-32.8 2266,-32.8"/>
</g>
<g id="clust15" class="cluster">
<title>cluster_AppModule_declarations</title>
<polygon fill="none" stroke="black" points="2275,-40.8 2275,-92.8 2397,-92.8 2397,-40.8 2275,-40.8"/>
</g>
<g id="clust19" class="cluster">
<title>cluster_AppModule_bootstrap</title>
<polygon fill="none" stroke="black" points="2274,-176.8 2274,-228.8 2398,-228.8 2398,-176.8 2274,-176.8"/>
</g>
<g id="clust21" class="cluster">
<title>cluster_ComponentsModule</title>
<polygon fill="none" stroke="black" stroke-dasharray="1,5" points="764,-32.8 764,-236.8 1604,-236.8 1604,-32.8 764,-32.8"/>
</g>
<g id="clust22" class="cluster">
<title>cluster_ComponentsModule_declarations</title>
<polygon fill="none" stroke="black" points="783,-40.8 783,-92.8 1585,-92.8 1585,-40.8 783,-40.8"/>
</g>
<g id="clust30" class="cluster">
<title>cluster_ComponentsModule_exports</title>
<polygon fill="none" stroke="black" points="772,-176.8 772,-228.8 1596,-228.8 1596,-176.8 772,-176.8"/>
</g>
<g id="clust33" class="cluster">
<title>cluster_ContactModule</title>
<polygon fill="none" stroke="black" stroke-dasharray="1,5" points="1612,-32.8 1612,-236.8 1940,-236.8 1940,-32.8 1612,-32.8"/>
</g>
<g id="clust34" class="cluster">
<title>cluster_ContactModule_declarations</title>
<polygon fill="none" stroke="black" points="1792,-40.8 1792,-92.8 1932,-92.8 1932,-40.8 1792,-40.8"/>
</g>
<g id="clust36" class="cluster">
<title>cluster_ContactModule_imports</title>
<polygon fill="none" stroke="black" points="1620,-40.8 1620,-92.8 1784,-92.8 1784,-40.8 1620,-40.8"/>
</g>
<g id="clust37" class="cluster">
<title>cluster_ContactModule_exports</title>
<polygon fill="none" stroke="black" points="1630,-176.8 1630,-228.8 1774,-228.8 1774,-176.8 1630,-176.8"/>
</g>
<g id="clust46" class="cluster">
<title>cluster_CoursesModule</title>
<polygon fill="none" stroke="black" stroke-dasharray="1,5" points="2414,-32.8 2414,-236.8 2746,-236.8 2746,-32.8 2414,-32.8"/>
</g>
<g id="clust47" class="cluster">
<title>cluster_CoursesModule_declarations</title>
<polygon fill="none" stroke="black" points="2596,-40.8 2596,-92.8 2738,-92.8 2738,-40.8 2596,-40.8"/>
</g>
<g id="clust49" class="cluster">
<title>cluster_CoursesModule_imports</title>
<polygon fill="none" stroke="black" points="2422,-40.8 2422,-92.8 2588,-92.8 2588,-40.8 2422,-40.8"/>
</g>
<g id="clust50" class="cluster">
<title>cluster_CoursesModule_exports</title>
<polygon fill="none" stroke="black" points="2512,-176.8 2512,-228.8 2658,-228.8 2658,-176.8 2512,-176.8"/>
</g>
<g id="clust59" class="cluster">
<title>cluster_HomeModule</title>
<polygon fill="none" stroke="black" stroke-dasharray="1,5" points="1948,-32.8 1948,-236.8 2258,-236.8 2258,-32.8 1948,-32.8"/>
</g>
<g id="clust60" class="cluster">
<title>cluster_HomeModule_declarations</title>
<polygon fill="none" stroke="black" points="2118,-40.8 2118,-92.8 2250,-92.8 2250,-40.8 2118,-40.8"/>
</g>
<g id="clust62" class="cluster">
<title>cluster_HomeModule_imports</title>
<polygon fill="none" stroke="black" points="1956,-40.8 1956,-92.8 2110,-92.8 2110,-40.8 1956,-40.8"/>
</g>
<g id="clust63" class="cluster">
<title>cluster_HomeModule_exports</title>
<polygon fill="none" stroke="black" points="1965,-176.8 1965,-228.8 2101,-228.8 2101,-176.8 1965,-176.8"/>
</g>
<g id="clust72" class="cluster">
<title>cluster_PortfolioModule</title>
<polygon fill="none" stroke="black" stroke-dasharray="1,5" points="2754,-32.8 2754,-236.8 3096,-236.8 3096,-32.8 2754,-32.8"/>
</g>
<g id="clust73" class="cluster">
<title>cluster_PortfolioModule_declarations</title>
<polygon fill="none" stroke="black" points="2940,-40.8 2940,-92.8 3088,-92.8 3088,-40.8 2940,-40.8"/>
</g>
<g id="clust75" class="cluster">
<title>cluster_PortfolioModule_imports</title>
<polygon fill="none" stroke="black" points="2762,-40.8 2762,-92.8 2932,-92.8 2932,-40.8 2762,-40.8"/>
</g>
<g id="clust76" class="cluster">
<title>cluster_PortfolioModule_exports</title>
<polygon fill="none" stroke="black" points="2855,-176.8 2855,-228.8 3005,-228.8 3005,-176.8 2855,-176.8"/>
</g>
<g id="clust85" class="cluster">
<title>cluster_PostModule</title>
<polygon fill="none" stroke="black" stroke-dasharray="1,5" points="3104,-32.8 3104,-236.8 3394,-236.8 3394,-32.8 3104,-32.8"/>
</g>
<g id="clust86" class="cluster">
<title>cluster_PostModule_declarations</title>
<polygon fill="none" stroke="black" points="3264,-40.8 3264,-92.8 3386,-92.8 3386,-40.8 3264,-40.8"/>
</g>
<g id="clust88" class="cluster">
<title>cluster_PostModule_imports</title>
<polygon fill="none" stroke="black" points="3112,-40.8 3112,-92.8 3256,-92.8 3256,-40.8 3112,-40.8"/>
</g>
<g id="clust89" class="cluster">
<title>cluster_PostModule_exports</title>
<polygon fill="none" stroke="black" points="3192,-176.8 3192,-228.8 3316,-228.8 3316,-176.8 3192,-176.8"/>
</g>
<g id="clust98" class="cluster">
<title>cluster_SidebarModule</title>
<polygon fill="none" stroke="black" stroke-dasharray="1,5" points="8,-100.8 8,-168.8 316,-168.8 316,-100.8 8,-100.8"/>
</g>
<g id="clust99" class="cluster">
<title>cluster_SidebarModule_declarations</title>
<polygon fill="none" stroke="black" points="168,-108.8 168,-160.8 308,-160.8 308,-108.8 168,-108.8"/>
</g>
<g id="clust102" class="cluster">
<title>cluster_SidebarModule_exports</title>
<polygon fill="none" stroke="black" points="16,-108.8 16,-160.8 160,-160.8 160,-108.8 16,-108.8"/>
</g>
<!-- AboutComponent -->
<g id="node1" class="node">
<title>AboutComponent</title>
<polygon fill="#ffffb3" stroke="black" points="456.33,-84.8 339.67,-84.8 339.67,-48.8 456.33,-48.8 456.33,-84.8"/>
<text text-anchor="middle" x="398" y="-62.6" font-family="Times,serif" font-size="14.00">AboutComponent</text>
</g>
<!-- AboutModule -->
<g id="node2" class="node">
<title>AboutModule</title>
<polygon fill="#8dd3c7" stroke="black" points="597.05,-152.8 594.05,-156.8 573.05,-156.8 570.05,-152.8 502.95,-152.8 502.95,-116.8 597.05,-116.8 597.05,-152.8"/>
<text text-anchor="middle" x="550" y="-130.6" font-family="Times,serif" font-size="14.00">AboutModule</text>
</g>
<!-- AboutComponent&#45;&gt;AboutModule -->
<g id="edge1" class="edge">
<title>AboutComponent&#45;&gt;AboutModule</title>
<path fill="none" stroke="black" d="M398,-85.02C398,-105.17 398,-134.8 398,-134.8 398,-134.8 492.74,-134.8 492.74,-134.8"/>
<polygon fill="black" stroke="black" points="492.74,-138.3 502.74,-134.8 492.74,-131.3 492.74,-138.3"/>
</g>
<!-- AboutComponent  -->
<g id="node5" class="node">
<title>AboutComponent </title>
<polygon fill="#fb8072" stroke="black" points="609.83,-220.8 490.17,-220.8 490.17,-184.8 609.83,-184.8 609.83,-220.8"/>
<text text-anchor="middle" x="550" y="-198.6" font-family="Times,serif" font-size="14.00">AboutComponent </text>
</g>
<!-- AboutModule&#45;&gt;AboutComponent  -->
<g id="edge4" class="edge">
<title>AboutModule&#45;&gt;AboutComponent </title>
<path fill="none" stroke="black" stroke-dasharray="5,2" d="M550,-153.02C550,-153.02 550,-174.53 550,-174.53"/>
<polygon fill="black" stroke="black" points="546.5,-174.53 550,-184.53 553.5,-174.53 546.5,-174.53"/>
</g>
<!-- AboutRoutingModule -->
<g id="node3" class="node">
<title>AboutRoutingModule</title>
<polygon fill="#8dd3c7" stroke="black" points="619.67,-84.8 616.67,-88.8 595.67,-88.8 592.67,-84.8 480.33,-84.8 480.33,-48.8 619.67,-48.8 619.67,-84.8"/>
<text text-anchor="middle" x="550" y="-62.6" font-family="Times,serif" font-size="14.00">AboutRoutingModule</text>
</g>
<!-- AboutRoutingModule&#45;&gt;AboutModule -->
<g id="edge2" class="edge">
<title>AboutRoutingModule&#45;&gt;AboutModule</title>
<path fill="none" stroke="black" d="M550,-85.02C550,-85.02 550,-106.53 550,-106.53"/>
<polygon fill="black" stroke="black" points="546.5,-106.53 550,-116.53 553.5,-106.53 546.5,-106.53"/>
</g>
<!-- SidebarModule -->
<g id="node4" class="node">
<title>SidebarModule</title>
<polygon fill="#8dd3c7" stroke="black" points="740.31,-84.8 737.31,-88.8 716.31,-88.8 713.31,-84.8 637.69,-84.8 637.69,-48.8 740.31,-48.8 740.31,-84.8"/>
<text text-anchor="middle" x="689" y="-62.6" font-family="Times,serif" font-size="14.00">SidebarModule</text>
</g>
<!-- SidebarModule&#45;&gt;AboutModule -->
<g id="edge3" class="edge">
<title>SidebarModule&#45;&gt;AboutModule</title>
<path fill="none" stroke="black" d="M710.92,-85.18C710.92,-109.08 710.92,-147.8 710.92,-147.8 710.92,-147.8 607.41,-147.8 607.41,-147.8"/>
<polygon fill="black" stroke="black" points="607.41,-144.3 597.41,-147.8 607.41,-151.3 607.41,-144.3"/>
</g>
<!-- ComponentsModule -->
<g id="node15" class="node">
<title>ComponentsModule</title>
<polygon fill="#8dd3c7" stroke="black" points="1193.33,-152.8 1190.33,-156.8 1169.33,-156.8 1166.33,-152.8 1062.67,-152.8 1062.67,-116.8 1193.33,-116.8 1193.33,-152.8"/>
<text text-anchor="middle" x="1128" y="-130.6" font-family="Times,serif" font-size="14.00">ComponentsModule</text>
</g>
<!-- SidebarModule&#45;&gt;ComponentsModule -->
<g id="edge13" class="edge">
<title>SidebarModule&#45;&gt;ComponentsModule</title>
<path fill="none" stroke="black" d="M725.54,-84.83C725.54,-104.38 725.54,-132.8 725.54,-132.8 725.54,-132.8 1052.44,-132.8 1052.44,-132.8"/>
<polygon fill="black" stroke="black" points="1052.44,-136.3 1062.44,-132.8 1052.44,-129.3 1052.44,-136.3"/>
</g>
<!-- ContactModule -->
<g id="node23" class="node">
<title>ContactModule</title>
<polygon fill="#8dd3c7" stroke="black" points="1753.6,-152.8 1750.6,-156.8 1729.6,-156.8 1726.6,-152.8 1650.4,-152.8 1650.4,-116.8 1753.6,-116.8 1753.6,-152.8"/>
<text text-anchor="middle" x="1702" y="-130.6" font-family="Times,serif" font-size="14.00">ContactModule</text>
</g>
<!-- SidebarModule&#45;&gt;ContactModule -->
<g id="edge22" class="edge">
<title>SidebarModule&#45;&gt;ContactModule</title>
<path fill="none" stroke="black" d="M681.69,-84.83C681.69,-91.65 681.69,-97.8 681.69,-97.8 681.69,-97.8 1684.82,-97.8 1684.82,-97.8 1684.82,-97.8 1684.82,-106.73 1684.82,-106.73"/>
<polygon fill="black" stroke="black" points="1681.32,-106.73 1684.82,-116.73 1688.32,-106.73 1681.32,-106.73"/>
</g>
<!-- HomeModule -->
<g id="node31" class="node">
<title>HomeModule</title>
<polygon fill="#8dd3c7" stroke="black" points="2079.76,-152.8 2076.76,-156.8 2055.76,-156.8 2052.76,-152.8 1986.24,-152.8 1986.24,-116.8 2079.76,-116.8 2079.76,-152.8"/>
<text text-anchor="middle" x="2033" y="-130.6" font-family="Times,serif" font-size="14.00">HomeModule</text>
</g>
<!-- SidebarModule&#45;&gt;HomeModule -->
<g id="edge29" class="edge">
<title>SidebarModule&#45;&gt;HomeModule</title>
<path fill="none" stroke="black" d="M696.31,-84.97C696.31,-88.85 696.31,-91.8 696.31,-91.8 696.31,-91.8 2017.37,-91.8 2017.37,-91.8 2017.37,-91.8 2017.37,-106.31 2017.37,-106.31"/>
<polygon fill="black" stroke="black" points="2013.87,-106.31 2017.37,-116.31 2020.87,-106.31 2013.87,-106.31"/>
</g>
<!-- SidebarComponent  -->
<g id="node43" class="node">
<title>SidebarComponent </title>
<polygon fill="#fb8072" stroke="black" points="151.6,-152.8 24.4,-152.8 24.4,-116.8 151.6,-116.8 151.6,-152.8"/>
<text text-anchor="middle" x="88" y="-130.6" font-family="Times,serif" font-size="14.00">SidebarComponent </text>
</g>
<!-- SidebarModule&#45;&gt;SidebarComponent  -->
<g id="edge38" class="edge">
<title>SidebarModule&#45;&gt;SidebarComponent </title>
<path fill="none" stroke="black" stroke-dasharray="5,2" d="M652.46,-84.91C652.46,-94.7 652.46,-104.8 652.46,-104.8 652.46,-104.8 88,-104.8 88,-104.8 88,-104.8 88,-106.66 88,-106.66"/>
<polygon fill="black" stroke="black" points="84.5,-106.66 88,-116.66 91.5,-106.66 84.5,-106.66"/>
</g>
<!-- AppComponent -->
<g id="node6" class="node">
<title>AppComponent</title>
<polygon fill="#ffffb3" stroke="black" points="2388.94,-84.8 2283.06,-84.8 2283.06,-48.8 2388.94,-48.8 2388.94,-84.8"/>
<text text-anchor="middle" x="2336" y="-62.6" font-family="Times,serif" font-size="14.00">AppComponent</text>
</g>
<!-- AppModule -->
<g id="node7" class="node">
<title>AppModule</title>
<polygon fill="#8dd3c7" stroke="black" points="2377.66,-152.8 2374.66,-156.8 2353.66,-156.8 2350.66,-152.8 2294.34,-152.8 2294.34,-116.8 2377.66,-116.8 2377.66,-152.8"/>
<text text-anchor="middle" x="2336" y="-130.6" font-family="Times,serif" font-size="14.00">AppModule</text>
</g>
<!-- AppComponent&#45;&gt;AppModule -->
<g id="edge5" class="edge">
<title>AppComponent&#45;&gt;AppModule</title>
<path fill="none" stroke="black" d="M2336,-85.02C2336,-85.02 2336,-106.53 2336,-106.53"/>
<polygon fill="black" stroke="black" points="2332.5,-106.53 2336,-116.53 2339.5,-106.53 2332.5,-106.53"/>
</g>
<!-- AppComponent  -->
<g id="node8" class="node">
<title>AppComponent </title>
<polygon fill="#80b1d3" stroke="black" points="2390.44,-220.8 2281.56,-220.8 2281.56,-184.8 2390.44,-184.8 2390.44,-220.8"/>
<text text-anchor="middle" x="2336" y="-198.6" font-family="Times,serif" font-size="14.00">AppComponent </text>
</g>
<!-- AppModule&#45;&gt;AppComponent  -->
<g id="edge6" class="edge">
<title>AppModule&#45;&gt;AppComponent </title>
<path fill="none" stroke="black" stroke-dasharray="1,5" d="M2336,-153.02C2336,-153.02 2336,-174.53 2336,-174.53"/>
<polygon fill="black" stroke="black" points="2332.5,-174.53 2336,-184.53 2339.5,-174.53 2332.5,-174.53"/>
</g>
<!-- DomSecurePipe -->
<g id="node9" class="node">
<title>DomSecurePipe</title>
<polygon fill="#ffffb3" stroke="black" points="1033.47,-84.8 926.53,-84.8 926.53,-48.8 1033.47,-48.8 1033.47,-84.8"/>
<text text-anchor="middle" x="980" y="-62.6" font-family="Times,serif" font-size="14.00">DomSecurePipe</text>
</g>
<!-- DomSecurePipe&#45;&gt;ComponentsModule -->
<g id="edge7" class="edge">
<title>DomSecurePipe&#45;&gt;ComponentsModule</title>
<path fill="none" stroke="black" d="M980,-84.83C980,-101.2 980,-122.8 980,-122.8 980,-122.8 1052.65,-122.8 1052.65,-122.8"/>
<polygon fill="black" stroke="black" points="1052.65,-126.3 1062.65,-122.8 1052.65,-119.3 1052.65,-126.3"/>
</g>
<!-- FooterComponent -->
<g id="node10" class="node">
<title>FooterComponent</title>
<polygon fill="#ffffb3" stroke="black" points="908.88,-84.8 791.12,-84.8 791.12,-48.8 908.88,-48.8 908.88,-84.8"/>
<text text-anchor="middle" x="850" y="-62.6" font-family="Times,serif" font-size="14.00">FooterComponent</text>
</g>
<!-- FooterComponent&#45;&gt;ComponentsModule -->
<g id="edge8" class="edge">
<title>FooterComponent&#45;&gt;ComponentsModule</title>
<path fill="none" stroke="black" d="M867.7,-85.1C867.7,-103.07 867.7,-127.8 867.7,-127.8 867.7,-127.8 1052.65,-127.8 1052.65,-127.8"/>
<polygon fill="black" stroke="black" points="1052.65,-131.3 1062.65,-127.8 1052.65,-124.3 1052.65,-131.3"/>
</g>
<!-- HeaderComponent -->
<g id="node11" class="node">
<title>HeaderComponent</title>
<polygon fill="#ffffb3" stroke="black" points="1576.74,-84.8 1455.26,-84.8 1455.26,-48.8 1576.74,-48.8 1576.74,-84.8"/>
<text text-anchor="middle" x="1516" y="-62.6" font-family="Times,serif" font-size="14.00">HeaderComponent</text>
</g>
<!-- HeaderComponent&#45;&gt;ComponentsModule -->
<g id="edge9" class="edge">
<title>HeaderComponent&#45;&gt;ComponentsModule</title>
<path fill="none" stroke="black" d="M1516,-85.07C1516,-103.36 1516,-128.8 1516,-128.8 1516,-128.8 1203.38,-128.8 1203.38,-128.8"/>
<polygon fill="black" stroke="black" points="1203.38,-125.3 1193.38,-128.8 1203.38,-132.3 1203.38,-125.3"/>
</g>
<!-- NavbarComponent -->
<g id="node12" class="node">
<title>NavbarComponent</title>
<polygon fill="#ffffb3" stroke="black" points="1437.03,-84.8 1314.97,-84.8 1314.97,-48.8 1437.03,-48.8 1437.03,-84.8"/>
<text text-anchor="middle" x="1376" y="-62.6" font-family="Times,serif" font-size="14.00">NavbarComponent</text>
</g>
<!-- NavbarComponent&#45;&gt;ComponentsModule -->
<g id="edge10" class="edge">
<title>NavbarComponent&#45;&gt;ComponentsModule</title>
<path fill="none" stroke="black" d="M1326.47,-84.83C1326.47,-101.2 1326.47,-122.8 1326.47,-122.8 1326.47,-122.8 1203.26,-122.8 1203.26,-122.8"/>
<polygon fill="black" stroke="black" points="1203.26,-119.3 1193.26,-122.8 1203.26,-126.3 1203.26,-119.3"/>
</g>
<!-- NotFoundComponent -->
<g id="node13" class="node">
<title>NotFoundComponent</title>
<polygon fill="#ffffb3" stroke="black" points="1297.11,-84.8 1158.89,-84.8 1158.89,-48.8 1297.11,-48.8 1297.11,-84.8"/>
<text text-anchor="middle" x="1228" y="-62.6" font-family="Times,serif" font-size="14.00">NotFoundComponent</text>
</g>
<!-- NotFoundComponent&#45;&gt;ComponentsModule -->
<g id="edge11" class="edge">
<title>NotFoundComponent&#45;&gt;ComponentsModule</title>
<path fill="none" stroke="black" d="M1176.05,-85.02C1176.05,-85.02 1176.05,-106.53 1176.05,-106.53"/>
<polygon fill="black" stroke="black" points="1172.55,-106.53 1176.05,-116.53 1179.55,-106.53 1172.55,-106.53"/>
</g>
<!-- YoutubePipe -->
<g id="node14" class="node">
<title>YoutubePipe</title>
<polygon fill="#ffffb3" stroke="black" points="1140.6,-84.8 1051.4,-84.8 1051.4,-48.8 1140.6,-48.8 1140.6,-84.8"/>
<text text-anchor="middle" x="1096" y="-62.6" font-family="Times,serif" font-size="14.00">YoutubePipe</text>
</g>
<!-- YoutubePipe&#45;&gt;ComponentsModule -->
<g id="edge12" class="edge">
<title>YoutubePipe&#45;&gt;ComponentsModule</title>
<path fill="none" stroke="black" d="M1101.69,-85.02C1101.69,-85.02 1101.69,-106.53 1101.69,-106.53"/>
<polygon fill="black" stroke="black" points="1098.19,-106.53 1101.69,-116.53 1105.19,-106.53 1098.19,-106.53"/>
</g>
<!-- DomSecurePipe  -->
<g id="node16" class="node">
<title>DomSecurePipe </title>
<polygon fill="#fb8072" stroke="black" points="1317.47,-220.8 1206.53,-220.8 1206.53,-184.8 1317.47,-184.8 1317.47,-220.8"/>
<text text-anchor="middle" x="1262" y="-198.6" font-family="Times,serif" font-size="14.00">DomSecurePipe </text>
</g>
<!-- ComponentsModule&#45;&gt;DomSecurePipe  -->
<g id="edge14" class="edge">
<title>ComponentsModule&#45;&gt;DomSecurePipe </title>
<path fill="none" stroke="black" stroke-dasharray="5,2" d="M1193.22,-146.8C1223.07,-146.8 1251.91,-146.8 1251.91,-146.8 1251.91,-146.8 1251.91,-174.77 1251.91,-174.77"/>
<polygon fill="black" stroke="black" points="1248.41,-174.77 1251.91,-184.77 1255.41,-174.77 1248.41,-174.77"/>
</g>
<!-- FooterComponent  -->
<g id="node17" class="node">
<title>FooterComponent </title>
<polygon fill="#fb8072" stroke="black" points="1188.88,-220.8 1067.12,-220.8 1067.12,-184.8 1188.88,-184.8 1188.88,-220.8"/>
<text text-anchor="middle" x="1128" y="-198.6" font-family="Times,serif" font-size="14.00">FooterComponent </text>
</g>
<!-- ComponentsModule&#45;&gt;FooterComponent  -->
<g id="edge15" class="edge">
<title>ComponentsModule&#45;&gt;FooterComponent </title>
<path fill="none" stroke="black" stroke-dasharray="5,2" d="M1128,-153.02C1128,-153.02 1128,-174.53 1128,-174.53"/>
<polygon fill="black" stroke="black" points="1124.5,-174.53 1128,-184.53 1131.5,-174.53 1124.5,-174.53"/>
</g>
<!-- HeaderComponent  -->
<g id="node18" class="node">
<title>HeaderComponent </title>
<polygon fill="#fb8072" stroke="black" points="1049.74,-220.8 924.26,-220.8 924.26,-184.8 1049.74,-184.8 1049.74,-220.8"/>
<text text-anchor="middle" x="987" y="-198.6" font-family="Times,serif" font-size="14.00">HeaderComponent </text>
</g>
<!-- ComponentsModule&#45;&gt;HeaderComponent  -->
<g id="edge16" class="edge">
<title>ComponentsModule&#45;&gt;HeaderComponent </title>
<path fill="none" stroke="black" stroke-dasharray="5,2" d="M1062.48,-142.8C1050.42,-142.8 1041.55,-142.8 1041.55,-142.8 1041.55,-142.8 1041.55,-174.8 1041.55,-174.8"/>
<polygon fill="black" stroke="black" points="1038.05,-174.8 1041.55,-184.8 1045.05,-174.8 1038.05,-174.8"/>
</g>
<!-- NavbarComponent  -->
<g id="node19" class="node">
<title>NavbarComponent </title>
<polygon fill="#fb8072" stroke="black" points="906.03,-220.8 779.97,-220.8 779.97,-184.8 906.03,-184.8 906.03,-220.8"/>
<text text-anchor="middle" x="843" y="-198.6" font-family="Times,serif" font-size="14.00">NavbarComponent </text>
</g>
<!-- ComponentsModule&#45;&gt;NavbarComponent  -->
<g id="edge17" class="edge">
<title>ComponentsModule&#45;&gt;NavbarComponent </title>
<path fill="none" stroke="black" stroke-dasharray="5,2" d="M1062.84,-137.8C974.97,-137.8 829.38,-137.8 829.38,-137.8 829.38,-137.8 829.38,-174.69 829.38,-174.69"/>
<polygon fill="black" stroke="black" points="825.88,-174.69 829.38,-184.69 832.88,-174.69 825.88,-174.69"/>
</g>
<!-- NotFoundComponent  -->
<g id="node20" class="node">
<title>NotFoundComponent </title>
<polygon fill="#fb8072" stroke="black" points="1587.61,-220.8 1446.39,-220.8 1446.39,-184.8 1587.61,-184.8 1587.61,-220.8"/>
<text text-anchor="middle" x="1517" y="-198.6" font-family="Times,serif" font-size="14.00">NotFoundComponent </text>
</g>
<!-- ComponentsModule&#45;&gt;NotFoundComponent  -->
<g id="edge18" class="edge">
<title>ComponentsModule&#45;&gt;NotFoundComponent </title>
<path fill="none" stroke="black" stroke-dasharray="5,2" d="M1193.3,-134.8C1287.58,-134.8 1450.66,-134.8 1450.66,-134.8 1450.66,-134.8 1450.66,-174.58 1450.66,-174.58"/>
<polygon fill="black" stroke="black" points="1447.16,-174.58 1450.66,-184.58 1454.16,-174.58 1447.16,-174.58"/>
</g>
<!-- YoutubePipe  -->
<g id="node21" class="node">
<title>YoutubePipe </title>
<polygon fill="#fb8072" stroke="black" points="1428.1,-220.8 1335.9,-220.8 1335.9,-184.8 1428.1,-184.8 1428.1,-220.8"/>
<text text-anchor="middle" x="1382" y="-198.6" font-family="Times,serif" font-size="14.00">YoutubePipe </text>
</g>
<!-- ComponentsModule&#45;&gt;YoutubePipe  -->
<g id="edge19" class="edge">
<title>ComponentsModule&#45;&gt;YoutubePipe </title>
<path fill="none" stroke="black" stroke-dasharray="5,2" d="M1193.41,-140.8C1268.67,-140.8 1382,-140.8 1382,-140.8 1382,-140.8 1382,-174.53 1382,-174.53"/>
<polygon fill="black" stroke="black" points="1378.5,-174.53 1382,-184.53 1385.5,-174.53 1378.5,-174.53"/>
</g>
<!-- ContactComponent -->
<g id="node22" class="node">
<title>ContactComponent</title>
<polygon fill="#ffffb3" stroke="black" points="1924.38,-84.8 1799.62,-84.8 1799.62,-48.8 1924.38,-48.8 1924.38,-84.8"/>
<text text-anchor="middle" x="1862" y="-62.6" font-family="Times,serif" font-size="14.00">ContactComponent</text>
</g>
<!-- ContactComponent&#45;&gt;ContactModule -->
<g id="edge20" class="edge">
<title>ContactComponent&#45;&gt;ContactModule</title>
<path fill="none" stroke="black" d="M1862,-85.02C1862,-105.17 1862,-134.8 1862,-134.8 1862,-134.8 1763.95,-134.8 1763.95,-134.8"/>
<polygon fill="black" stroke="black" points="1763.95,-131.3 1753.95,-134.8 1763.95,-138.3 1763.95,-131.3"/>
</g>
<!-- ContactComponent  -->
<g id="node25" class="node">
<title>ContactComponent </title>
<polygon fill="#fb8072" stroke="black" points="1766.38,-220.8 1637.62,-220.8 1637.62,-184.8 1766.38,-184.8 1766.38,-220.8"/>
<text text-anchor="middle" x="1702" y="-198.6" font-family="Times,serif" font-size="14.00">ContactComponent </text>
</g>
<!-- ContactModule&#45;&gt;ContactComponent  -->
<g id="edge23" class="edge">
<title>ContactModule&#45;&gt;ContactComponent </title>
<path fill="none" stroke="black" stroke-dasharray="5,2" d="M1702,-153.02C1702,-153.02 1702,-174.53 1702,-174.53"/>
<polygon fill="black" stroke="black" points="1698.5,-174.53 1702,-184.53 1705.5,-174.53 1698.5,-174.53"/>
</g>
<!-- ContactRoutingModule -->
<g id="node24" class="node">
<title>ContactRoutingModule</title>
<polygon fill="#8dd3c7" stroke="black" points="1776.21,-84.8 1773.21,-88.8 1752.21,-88.8 1749.21,-84.8 1627.79,-84.8 1627.79,-48.8 1776.21,-48.8 1776.21,-84.8"/>
<text text-anchor="middle" x="1702" y="-62.6" font-family="Times,serif" font-size="14.00">ContactRoutingModule</text>
</g>
<!-- ContactRoutingModule&#45;&gt;ContactModule -->
<g id="edge21" class="edge">
<title>ContactRoutingModule&#45;&gt;ContactModule</title>
<path fill="none" stroke="black" d="M1719.18,-85.02C1719.18,-85.02 1719.18,-106.53 1719.18,-106.53"/>
<polygon fill="black" stroke="black" points="1715.68,-106.53 1719.18,-116.53 1722.68,-106.53 1715.68,-106.53"/>
</g>
<!-- CoursesComponent -->
<g id="node26" class="node">
<title>CoursesComponent</title>
<polygon fill="#ffffb3" stroke="black" points="2730.43,-84.8 2603.57,-84.8 2603.57,-48.8 2730.43,-48.8 2730.43,-84.8"/>
<text text-anchor="middle" x="2667" y="-62.6" font-family="Times,serif" font-size="14.00">CoursesComponent</text>
</g>
<!-- CoursesModule -->
<g id="node27" class="node">
<title>CoursesModule</title>
<polygon fill="#8dd3c7" stroke="black" points="2637.15,-152.8 2634.15,-156.8 2613.15,-156.8 2610.15,-152.8 2532.85,-152.8 2532.85,-116.8 2637.15,-116.8 2637.15,-152.8"/>
<text text-anchor="middle" x="2585" y="-130.6" font-family="Times,serif" font-size="14.00">CoursesModule</text>
</g>
<!-- CoursesComponent&#45;&gt;CoursesModule -->
<g id="edge24" class="edge">
<title>CoursesComponent&#45;&gt;CoursesModule</title>
<path fill="none" stroke="black" d="M2620.55,-85.02C2620.55,-85.02 2620.55,-106.53 2620.55,-106.53"/>
<polygon fill="black" stroke="black" points="2617.05,-106.53 2620.55,-116.53 2624.05,-106.53 2617.05,-106.53"/>
</g>
<!-- CoursesComponent  -->
<g id="node29" class="node">
<title>CoursesComponent </title>
<polygon fill="#fb8072" stroke="black" points="2649.93,-220.8 2520.07,-220.8 2520.07,-184.8 2649.93,-184.8 2649.93,-220.8"/>
<text text-anchor="middle" x="2585" y="-198.6" font-family="Times,serif" font-size="14.00">CoursesComponent </text>
</g>
<!-- CoursesModule&#45;&gt;CoursesComponent  -->
<g id="edge26" class="edge">
<title>CoursesModule&#45;&gt;CoursesComponent </title>
<path fill="none" stroke="black" stroke-dasharray="5,2" d="M2585,-153.02C2585,-153.02 2585,-174.53 2585,-174.53"/>
<polygon fill="black" stroke="black" points="2581.5,-174.53 2585,-184.53 2588.5,-174.53 2581.5,-174.53"/>
</g>
<!-- CoursesRoutingModule -->
<g id="node28" class="node">
<title>CoursesRoutingModule</title>
<polygon fill="#8dd3c7" stroke="black" points="2579.77,-84.8 2576.77,-88.8 2555.77,-88.8 2552.77,-84.8 2430.23,-84.8 2430.23,-48.8 2579.77,-48.8 2579.77,-84.8"/>
<text text-anchor="middle" x="2505" y="-62.6" font-family="Times,serif" font-size="14.00">CoursesRoutingModule</text>
</g>
<!-- CoursesRoutingModule&#45;&gt;CoursesModule -->
<g id="edge25" class="edge">
<title>CoursesRoutingModule&#45;&gt;CoursesModule</title>
<path fill="none" stroke="black" d="M2556.28,-85.02C2556.28,-85.02 2556.28,-106.53 2556.28,-106.53"/>
<polygon fill="black" stroke="black" points="2552.78,-106.53 2556.28,-116.53 2559.78,-106.53 2552.78,-106.53"/>
</g>
<!-- HomeComponent -->
<g id="node30" class="node">
<title>HomeComponent</title>
<polygon fill="#ffffb3" stroke="black" points="2241.55,-84.8 2126.45,-84.8 2126.45,-48.8 2241.55,-48.8 2241.55,-84.8"/>
<text text-anchor="middle" x="2184" y="-62.6" font-family="Times,serif" font-size="14.00">HomeComponent</text>
</g>
<!-- HomeComponent&#45;&gt;HomeModule -->
<g id="edge27" class="edge">
<title>HomeComponent&#45;&gt;HomeModule</title>
<path fill="none" stroke="black" d="M2184,-85.02C2184,-105.17 2184,-134.8 2184,-134.8 2184,-134.8 2089.95,-134.8 2089.95,-134.8"/>
<polygon fill="black" stroke="black" points="2089.95,-131.3 2079.95,-134.8 2089.95,-138.3 2089.95,-131.3"/>
</g>
<!-- HomeComponent  -->
<g id="node33" class="node">
<title>HomeComponent </title>
<polygon fill="#fb8072" stroke="black" points="2092.54,-220.8 1973.46,-220.8 1973.46,-184.8 2092.54,-184.8 2092.54,-220.8"/>
<text text-anchor="middle" x="2033" y="-198.6" font-family="Times,serif" font-size="14.00">HomeComponent </text>
</g>
<!-- HomeModule&#45;&gt;HomeComponent  -->
<g id="edge30" class="edge">
<title>HomeModule&#45;&gt;HomeComponent </title>
<path fill="none" stroke="black" stroke-dasharray="5,2" d="M2033,-153.02C2033,-153.02 2033,-174.53 2033,-174.53"/>
<polygon fill="black" stroke="black" points="2029.5,-174.53 2033,-184.53 2036.5,-174.53 2029.5,-174.53"/>
</g>
<!-- HomeRoutingModule -->
<g id="node32" class="node">
<title>HomeRoutingModule</title>
<polygon fill="#8dd3c7" stroke="black" points="2102.38,-84.8 2099.38,-88.8 2078.38,-88.8 2075.38,-84.8 1963.62,-84.8 1963.62,-48.8 2102.38,-48.8 2102.38,-84.8"/>
<text text-anchor="middle" x="2033" y="-62.6" font-family="Times,serif" font-size="14.00">HomeRoutingModule</text>
</g>
<!-- HomeRoutingModule&#45;&gt;HomeModule -->
<g id="edge28" class="edge">
<title>HomeRoutingModule&#45;&gt;HomeModule</title>
<path fill="none" stroke="black" d="M2048.63,-85.02C2048.63,-85.02 2048.63,-106.53 2048.63,-106.53"/>
<polygon fill="black" stroke="black" points="2045.13,-106.53 2048.63,-116.53 2052.13,-106.53 2045.13,-106.53"/>
</g>
<!-- PortfolioComponent -->
<g id="node34" class="node">
<title>PortfolioComponent</title>
<polygon fill="#ffffb3" stroke="black" points="3079.61,-84.8 2948.39,-84.8 2948.39,-48.8 3079.61,-48.8 3079.61,-84.8"/>
<text text-anchor="middle" x="3014" y="-62.6" font-family="Times,serif" font-size="14.00">PortfolioComponent</text>
</g>
<!-- PortfolioModule -->
<g id="node35" class="node">
<title>PortfolioModule</title>
<polygon fill="#8dd3c7" stroke="black" points="2984.83,-152.8 2981.83,-156.8 2960.83,-156.8 2957.83,-152.8 2875.17,-152.8 2875.17,-116.8 2984.83,-116.8 2984.83,-152.8"/>
<text text-anchor="middle" x="2930" y="-130.6" font-family="Times,serif" font-size="14.00">PortfolioModule</text>
</g>
<!-- PortfolioComponent&#45;&gt;PortfolioModule -->
<g id="edge31" class="edge">
<title>PortfolioComponent&#45;&gt;PortfolioModule</title>
<path fill="none" stroke="black" d="M2966.55,-85.02C2966.55,-85.02 2966.55,-106.53 2966.55,-106.53"/>
<polygon fill="black" stroke="black" points="2963.05,-106.53 2966.55,-116.53 2970.05,-106.53 2963.05,-106.53"/>
</g>
<!-- PortfolioComponent  -->
<g id="node37" class="node">
<title>PortfolioComponent </title>
<polygon fill="#fb8072" stroke="black" points="2997.11,-220.8 2862.89,-220.8 2862.89,-184.8 2997.11,-184.8 2997.11,-220.8"/>
<text text-anchor="middle" x="2930" y="-198.6" font-family="Times,serif" font-size="14.00">PortfolioComponent </text>
</g>
<!-- PortfolioModule&#45;&gt;PortfolioComponent  -->
<g id="edge33" class="edge">
<title>PortfolioModule&#45;&gt;PortfolioComponent </title>
<path fill="none" stroke="black" stroke-dasharray="5,2" d="M2930,-153.02C2930,-153.02 2930,-174.53 2930,-174.53"/>
<polygon fill="black" stroke="black" points="2926.5,-174.53 2930,-184.53 2933.5,-174.53 2926.5,-174.53"/>
</g>
<!-- PortfolioRoutingModule -->
<g id="node36" class="node">
<title>PortfolioRoutingModule</title>
<polygon fill="#8dd3c7" stroke="black" points="2924.44,-84.8 2921.44,-88.8 2900.44,-88.8 2897.44,-84.8 2769.56,-84.8 2769.56,-48.8 2924.44,-48.8 2924.44,-84.8"/>
<text text-anchor="middle" x="2847" y="-62.6" font-family="Times,serif" font-size="14.00">PortfolioRoutingModule</text>
</g>
<!-- PortfolioRoutingModule&#45;&gt;PortfolioModule -->
<g id="edge32" class="edge">
<title>PortfolioRoutingModule&#45;&gt;PortfolioModule</title>
<path fill="none" stroke="black" d="M2899.78,-85.02C2899.78,-85.02 2899.78,-106.53 2899.78,-106.53"/>
<polygon fill="black" stroke="black" points="2896.28,-106.53 2899.78,-116.53 2903.28,-106.53 2896.28,-106.53"/>
</g>
<!-- PostComponent -->
<g id="node38" class="node">
<title>PostComponent</title>
<polygon fill="#ffffb3" stroke="black" points="3377.95,-84.8 3272.05,-84.8 3272.05,-48.8 3377.95,-48.8 3377.95,-84.8"/>
<text text-anchor="middle" x="3325" y="-62.6" font-family="Times,serif" font-size="14.00">PostComponent</text>
</g>
<!-- PostModule -->
<g id="node39" class="node">
<title>PostModule</title>
<polygon fill="#8dd3c7" stroke="black" points="3295.67,-152.8 3292.67,-156.8 3271.67,-156.8 3268.67,-152.8 3212.33,-152.8 3212.33,-116.8 3295.67,-116.8 3295.67,-152.8"/>
<text text-anchor="middle" x="3254" y="-130.6" font-family="Times,serif" font-size="14.00">PostModule</text>
</g>
<!-- PostComponent&#45;&gt;PostModule -->
<g id="edge34" class="edge">
<title>PostComponent&#45;&gt;PostModule</title>
<path fill="none" stroke="black" d="M3284.05,-85.02C3284.05,-85.02 3284.05,-106.53 3284.05,-106.53"/>
<polygon fill="black" stroke="black" points="3280.55,-106.53 3284.05,-116.53 3287.55,-106.53 3280.55,-106.53"/>
</g>
<!-- PostComponent  -->
<g id="node41" class="node">
<title>PostComponent </title>
<polygon fill="#fb8072" stroke="black" points="3308.45,-220.8 3199.55,-220.8 3199.55,-184.8 3308.45,-184.8 3308.45,-220.8"/>
<text text-anchor="middle" x="3254" y="-198.6" font-family="Times,serif" font-size="14.00">PostComponent </text>
</g>
<!-- PostModule&#45;&gt;PostComponent  -->
<g id="edge36" class="edge">
<title>PostModule&#45;&gt;PostComponent </title>
<path fill="none" stroke="black" stroke-dasharray="5,2" d="M3254,-153.02C3254,-153.02 3254,-174.53 3254,-174.53"/>
<polygon fill="black" stroke="black" points="3250.5,-174.53 3254,-184.53 3257.5,-174.53 3250.5,-174.53"/>
</g>
<!-- PostRoutingModule -->
<g id="node40" class="node">
<title>PostRoutingModule</title>
<polygon fill="#8dd3c7" stroke="black" points="3248.29,-84.8 3245.29,-88.8 3224.29,-88.8 3221.29,-84.8 3119.71,-84.8 3119.71,-48.8 3248.29,-48.8 3248.29,-84.8"/>
<text text-anchor="middle" x="3184" y="-62.6" font-family="Times,serif" font-size="14.00">PostRoutingModule</text>
</g>
<!-- PostRoutingModule&#45;&gt;PostModule -->
<g id="edge35" class="edge">
<title>PostRoutingModule&#45;&gt;PostModule</title>
<path fill="none" stroke="black" d="M3230.28,-85.02C3230.28,-85.02 3230.28,-106.53 3230.28,-106.53"/>
<polygon fill="black" stroke="black" points="3226.78,-106.53 3230.28,-116.53 3233.78,-106.53 3226.78,-106.53"/>
</g>
<!-- SidebarComponent -->
<g id="node42" class="node">
<title>SidebarComponent</title>
<polygon fill="#ffffb3" stroke="black" points="300.1,-152.8 175.9,-152.8 175.9,-116.8 300.1,-116.8 300.1,-152.8"/>
<text text-anchor="middle" x="238" y="-130.6" font-family="Times,serif" font-size="14.00">SidebarComponent</text>
</g>
<!-- SidebarComponent&#45;&gt;SidebarModule -->
<g id="edge37" class="edge">
<title>SidebarComponent&#45;&gt;SidebarModule</title>
<path fill="none" stroke="black" d="M238,-116.61C238,-113.26 238,-110.8 238,-110.8 238,-110.8 667.08,-110.8 667.08,-110.8 667.08,-110.8 667.08,-94.95 667.08,-94.95"/>
<polygon fill="black" stroke="black" points="670.58,-94.95 667.08,-84.95 663.58,-94.95 670.58,-94.95"/>
</g>
</g>
</svg>
