<?xml version="1.0" encoding="UTF-8" standalone="no"?>
<!DOCTYPE svg PUBLIC "-//W3C//DTD SVG 1.1//EN"
 "http://www.w3.org/Graphics/SVG/1.1/DTD/svg11.dtd">
<!-- Generated by graphviz version 2.47.3 (20210619.1520)
 -->
<!-- Title: dependencies Pages: 1 -->
<svg width="366pt" height="247pt"
 viewBox="0.00 0.00 366.00 246.80" xmlns="http://www.w3.org/2000/svg" xmlns:xlink="http://www.w3.org/1999/xlink">
<g id="graph0" class="graph" transform="scale(1 1) rotate(0) translate(4 242.8)">
<title>dependencies</title>
<polygon fill="white" stroke="transparent" points="-4,4 -4,-242.8 362,-242.8 362,4 -4,4"/>
<text text-anchor="middle" x="179" y="-8.2" font-family="sans-serif" font-size="14.00">dependencies</text>
<g id="clust1" class="cluster">
<title>cluster_PortfolioModule</title>
<polygon fill="none" stroke="black" stroke-dasharray="1,5" points="8,-32.8 8,-230.8 350,-230.8 350,-32.8 8,-32.8"/>
</g>
<g id="clust4" class="cluster">
<title>cluster_PortfolioModule_imports</title>
<polygon fill="none" stroke="black" points="172,-40.8 172,-92.8 342,-92.8 342,-40.8 172,-40.8"/>
</g>
<g id="clust5" class="cluster">
<title>cluster_PortfolioModule_exports</title>
<polygon fill="none" stroke="black" points="99,-170.8 99,-222.8 249,-222.8 249,-170.8 99,-170.8"/>
</g>
<g id="clust2" class="cluster">
<title>cluster_PortfolioModule_declarations</title>
<polygon fill="none" stroke="black" points="16,-40.8 16,-92.8 164,-92.8 164,-40.8 16,-40.8"/>
</g>
<!-- PortfolioComponent -->
<g id="node1" class="node">
<title>PortfolioComponent</title>
<polygon fill="#ffffb3" stroke="black" points="155.61,-84.8 24.39,-84.8 24.39,-48.8 155.61,-48.8 155.61,-84.8"/>
<text text-anchor="middle" x="90" y="-62.6" font-family="Times,serif" font-size="14.00">PortfolioComponent</text>
</g>
<!-- PortfolioModule -->
<g id="node2" class="node">
<title>PortfolioModule</title>
<polygon fill="#8dd3c7" stroke="black" points="228.83,-149.8 225.83,-153.8 204.83,-153.8 201.83,-149.8 119.17,-149.8 119.17,-113.8 228.83,-113.8 228.83,-149.8"/>
<text text-anchor="middle" x="174" y="-127.6" font-family="Times,serif" font-size="14.00">PortfolioModule</text>
</g>
<!-- PortfolioComponent&#45;&gt;PortfolioModule -->
<g id="edge1" class="edge">
<title>PortfolioComponent&#45;&gt;PortfolioModule</title>
<path fill="none" stroke="black" d="M137.45,-84.91C137.45,-84.91 137.45,-103.79 137.45,-103.79"/>
<polygon fill="black" stroke="black" points="133.95,-103.79 137.45,-113.79 140.95,-103.79 133.95,-103.79"/>
</g>
<!-- PortfolioComponent  -->
<g id="node4" class="node">
<title>PortfolioComponent </title>
<polygon fill="#fb8072" stroke="black" points="241.11,-214.8 106.89,-214.8 106.89,-178.8 241.11,-178.8 241.11,-214.8"/>
<text text-anchor="middle" x="174" y="-192.6" font-family="Times,serif" font-size="14.00">PortfolioComponent </text>
</g>
<!-- PortfolioModule&#45;&gt;PortfolioComponent  -->
<g id="edge3" class="edge">
<title>PortfolioModule&#45;&gt;PortfolioComponent </title>
<path fill="none" stroke="black" stroke-dasharray="5,2" d="M174,-149.91C174,-149.91 174,-168.79 174,-168.79"/>
<polygon fill="black" stroke="black" points="170.5,-168.79 174,-178.79 177.5,-168.79 170.5,-168.79"/>
</g>
<!-- PortfolioRoutingModule -->
<g id="node3" class="node">
<title>PortfolioRoutingModule</title>
<polygon fill="#8dd3c7" stroke="black" points="334.44,-84.8 331.44,-88.8 310.44,-88.8 307.44,-84.8 179.56,-84.8 179.56,-48.8 334.44,-48.8 334.44,-84.8"/>
<text text-anchor="middle" x="257" y="-62.6" font-family="Times,serif" font-size="14.00">PortfolioRoutingModule</text>
</g>
<!-- PortfolioRoutingModule&#45;&gt;PortfolioModule -->
<g id="edge2" class="edge">
<title>PortfolioRoutingModule&#45;&gt;PortfolioModule</title>
<path fill="none" stroke="black" d="M204.22,-84.91C204.22,-84.91 204.22,-103.79 204.22,-103.79"/>
<polygon fill="black" stroke="black" points="200.72,-103.79 204.22,-113.79 207.72,-103.79 200.72,-103.79"/>
</g>
</g>
</svg>
