<?xml version="1.0" encoding="UTF-8" standalone="no"?>
<!DOCTYPE svg PUBLIC "-//W3C//DTD SVG 1.1//EN"
 "http://www.w3.org/Graphics/SVG/1.1/DTD/svg11.dtd">
<!-- Generated by graphviz version 2.47.3 (20210619.1520)
 -->
<!-- Title: dependencies Pages: 1 -->
<svg width="184pt" height="247pt"
 viewBox="0.00 0.00 184.00 246.80" xmlns="http://www.w3.org/2000/svg" xmlns:xlink="http://www.w3.org/1999/xlink">
<g id="graph0" class="graph" transform="scale(1 1) rotate(0) translate(4 242.8)">
<title>dependencies</title>
<polygon fill="white" stroke="transparent" points="-4,4 -4,-242.8 180,-242.8 180,4 -4,4"/>
<text text-anchor="middle" x="88" y="-8.2" font-family="sans-serif" font-size="14.00">dependencies</text>
<g id="clust1" class="cluster">
<title>cluster_SidebarModule</title>
<polygon fill="none" stroke="black" stroke-dasharray="1,5" points="8,-32.8 8,-230.8 168,-230.8 168,-32.8 8,-32.8"/>
</g>
<g id="clust2" class="cluster">
<title>cluster_SidebarModule_declarations</title>
<polygon fill="none" stroke="black" points="18,-40.8 18,-92.8 158,-92.8 158,-40.8 18,-40.8"/>
</g>
<g id="clust5" class="cluster">
<title>cluster_SidebarModule_exports</title>
<polygon fill="none" stroke="black" points="16,-170.8 16,-222.8 160,-222.8 160,-170.8 16,-170.8"/>
</g>
<!-- SidebarComponent -->
<g id="node1" class="node">
<title>SidebarComponent</title>
<polygon fill="#ffffb3" stroke="black" points="150.1,-84.8 25.9,-84.8 25.9,-48.8 150.1,-48.8 150.1,-84.8"/>
<text text-anchor="middle" x="88" y="-62.6" font-family="Times,serif" font-size="14.00">SidebarComponent</text>
</g>
<!-- SidebarModule -->
<g id="node2" class="node">
<title>SidebarModule</title>
<polygon fill="#8dd3c7" stroke="black" points="139.31,-149.8 136.31,-153.8 115.31,-153.8 112.31,-149.8 36.69,-149.8 36.69,-113.8 139.31,-113.8 139.31,-149.8"/>
<text text-anchor="middle" x="88" y="-127.6" font-family="Times,serif" font-size="14.00">SidebarModule</text>
</g>
<!-- SidebarComponent&#45;&gt;SidebarModule -->
<g id="edge1" class="edge">
<title>SidebarComponent&#45;&gt;SidebarModule</title>
<path fill="none" stroke="black" d="M88,-84.91C88,-84.91 88,-103.79 88,-103.79"/>
<polygon fill="black" stroke="black" points="84.5,-103.79 88,-113.79 91.5,-103.79 84.5,-103.79"/>
</g>
<!-- SidebarComponent  -->
<g id="node3" class="node">
<title>SidebarComponent </title>
<polygon fill="#fb8072" stroke="black" points="151.6,-214.8 24.4,-214.8 24.4,-178.8 151.6,-178.8 151.6,-214.8"/>
<text text-anchor="middle" x="88" y="-192.6" font-family="Times,serif" font-size="14.00">SidebarComponent </text>
</g>
<!-- SidebarModule&#45;&gt;SidebarComponent  -->
<g id="edge2" class="edge">
<title>SidebarModule&#45;&gt;SidebarComponent </title>
<path fill="none" stroke="black" stroke-dasharray="5,2" d="M88,-149.91C88,-149.91 88,-168.79 88,-168.79"/>
<polygon fill="black" stroke="black" points="84.5,-168.79 88,-178.79 91.5,-168.79 84.5,-168.79"/>
</g>
</g>
</svg>
